<?xml version="1.0" encoding="utf-8"?>
<svg version="1.1" baseProfile="full" xmlns:xlink="http://www.w3.org/1999/xlink" xmlns:ev="http://www.w3.org/2001/xml-events" width="1056" height="360" viewBox="0 0 1056 360" xmlns="http://www.w3.org/2000/svg">
  <g transform="matrix(1,0,0,1,20,120)">
    <g opacity="1">
      <rect x="0" y="0" width="380" height="40" style="fill:rgb(218,218,218);stroke-width:1;stroke:rgb(0,0,0);" rx="0" ry="0" />
    </g>
  </g>
  <g transform="matrix(1,0,0,1,80,120)">
    <g opacity="1">
      <rect x="0" y="0" width="300" height="40" style="fill:rgb(194,234,255);stroke-width:1;stroke:rgb(0,0,0);" rx="0" ry="0" />
      <rect style="fill:rgb(0,0,0);fill-opacity:0;stroke-width:0;stroke-opacity:0;stroke:rgb(0,0,0);" x="77.2467" y="6.0367" width="145.5067" height="27.9267" />
      <text y="29.0743" font-family="Verdana" font-size="21.3333" fill="rgb(0,0,0)" x="150" text-anchor="middle">Experiment 1</text>
    </g>
  </g>
  <g transform="matrix(1,0,0,1,400,60)">
    <g opacity="1">
      <rect x="0" y="0" width="380" height="40" style="fill:rgb(218,218,218);stroke-width:1;stroke:rgb(0,0,0);" rx="0" ry="0" />
    </g>
  </g>
  <g transform="matrix(1,0,0,1,460,60)">
    <g opacity="1">
      <rect x="0" y="0" width="300" height="40" style="fill:rgb(194,234,255);stroke-width:1;stroke:rgb(0,0,0);" rx="0" ry="0" />
      <rect style="fill:rgb(0,0,0);fill-opacity:0;stroke-width:0;stroke-opacity:0;stroke:rgb(0,0,0);" x="77.2467" y="6.0367" width="145.5067" height="27.9267" />
      <text y="29.0743" font-family="Verdana" font-size="21.3333" fill="rgb(0,0,0)" x="150" text-anchor="middle">Experiment 2</text>
    </g>
  </g>
  <g transform="matrix(1,0,0,1,780,0)">
    <g opacity="1">
      <rect x="0" y="0" width="220" height="40" style="fill:rgb(218,218,218);stroke-width:1;stroke:rgb(0,0,0);" rx="0" ry="0" />
    </g>
  </g>
  <g opacity="1">
    <g transform="matrix(1,0,0,1,0,0)">
      <g style="fill:rgb(194,234,255);stroke-width:1;stroke:rgb(0,0,0);">
        <path d="M 1033.1342,40 C 1024.266,33.7662 1024.4925,26.0241 1033.1342,20 C 1041.7759,13.9759 1042.8013,5.6239 1033.1342,0 C 945.358,0.554 921.3992,0.4883 840,0 C 840.1197,7.3907 839.9998,27.8966 840,40 C 911.7205,39.6494 960.0194,39.8788 1033.1342,40 Z" />
      </g>
    </g>
  </g>
  <g transform="matrix(1,0,0,1,900,0)">
    <g opacity="1">
      <rect x="0" y="0" width="140" height="40" style="fill:rgb(0,0,0);fill-opacity:0;stroke-width:1;stroke-opacity:0;stroke:rgb(0,0,0);" rx="0" ry="0" />
      <rect style="fill:rgb(0,0,0);fill-opacity:0;stroke-width:0;stroke-opacity:0;stroke:rgb(0,0,0);" x="13.4467" y="6.0367" width="113.1067" height="27.9267" />
      <text y="29.0743" font-family="Verdana" font-size="21.3333" fill="rgb(0,0,0)" x="70" text-anchor="middle">Experim...</text>
    </g>
  </g>
  <g opacity="1">
    <line x1="380" y1="180" x2="380" y2="260" style="fill:none;stroke-width:2;stroke:rgb(0,0,0);stroke-dasharray:2,5;" />
  </g>
  <g opacity="1">
    <line x1="80" y1="180" x2="80" y2="260" style="fill:none;stroke-width:2;stroke:rgb(0,0,0);stroke-dasharray:2,5;" />
  </g>
  <g opacity="1">
    <line x1="20" y1="180" x2="20" y2="260" style="fill:none;stroke-width:2;stroke:rgb(0,0,0);stroke-dasharray:2,5;" />
  </g>
  <g opacity="1">
    <line x1="460" y1="120" x2="460" y2="260" style="fill:none;stroke-width:2;stroke:rgb(0,0,0);stroke-dasharray:2,5;" />
  </g>
  <g opacity="1">
    <line x1="760" y1="120" x2="760" y2="200" style="fill:none;stroke-width:2;stroke:rgb(0,0,0);stroke-dasharray:2,5;" />
  </g>
  <g opacity="1">
    <line x1="840" y1="60" x2="840" y2="200" style="fill:none;stroke-width:2;stroke:rgb(0,0,0);stroke-dasharray:2,5;" />
  </g>
  <g transform="matrix(0,1,-1,0,80,240)">
    <g opacity="1">
      <g style="fill:rgb(255,255,255);stroke-width:1;stroke:rgb(0,0,0);">
        <path d="M 14.2191,0 Q 26.5693,0 26.5693,15 Q 26.5693,30 38.9195,30 Q 26.5693,30 26.5693,45 Q 26.5693,60 14.2191,60" style="fill:none" />
      </g>
      <line x1="38.9195" y1="30" x2="80.8378" y2="-226.2242" style="fill:none;stroke-width:1;stroke:rgb(0,0,0);" />
    </g>
  </g>
  <g transform="matrix(0,1,-1,0,460,240)">
    <g opacity="1">
      <g style="fill:rgb(255,255,255);stroke-width:1;stroke:rgb(0,0,0);">
        <path d="M 14.2191,0 Q 26.5693,0 26.5693,20 Q 26.5693,40 38.9195,40 Q 26.5693,40 26.5693,60 Q 26.5693,80 14.2191,80" style="fill:none" />
      </g>
      <line x1="38.9195" y1="40" x2="65.7947" y2="-7.3466" style="fill:none;stroke-width:1;stroke:rgb(0,0,0);" />
    </g>
  </g>
  <g transform="matrix(0,1,-1,0,840,180)">
    <g opacity="1">
      <g style="fill:rgb(255,255,255);stroke-width:1;stroke:rgb(0,0,0);">
        <path d="M 14.2191,0 Q 26.5693,0 26.5693,20 Q 26.5693,40 38.9195,40 Q 26.5693,40 26.5693,60 Q 26.5693,80 14.2191,80" style="fill:none" />
      </g>
      <line x1="38.9195" y1="40" x2="141.7978" y2="219.3846" style="fill:none;stroke-width:1;stroke:rgb(0,0,0);" />
    </g>
  </g>
  <g transform="matrix(1,0,0,1,800,300)">
    <g opacity="1">
      <rect x="0" y="0" width="240" height="40" style="fill:rgb(218,218,218);stroke-width:1;stroke:rgb(0,0,0);" rx="0" ry="0" />
      <rect style="fill:rgb(0,0,0);fill-opacity:0;stroke-width:0;stroke-opacity:0;stroke:rgb(0,0,0);" x="10.9383" y="6.0367" width="218.1233" height="27.9267" />
      <text y="29.0743" font-family="Verdana" font-size="21.3333" fill="rgb(0,0,0)" x="120" text-anchor="middle">Necessary overhead</text>
    </g>
  </g>
  <g transform="matrix(1,0,0,1,800,240)">
    <g opacity="1">
      <rect x="0" y="0" width="240" height="40" style="fill:rgb(194,234,255);stroke-width:1;stroke:rgb(0,0,0);" rx="0" ry="0" />
      <rect style="fill:rgb(0,0,0);fill-opacity:0;stroke-width:0;stroke-opacity:0;stroke:rgb(0,0,0);" x="42.8167" y="6.0367" width="154.3667" height="27.9267" />
      <text y="29.0743" font-family="Verdana" font-size="21.3333" fill="rgb(0,0,0)" x="120" text-anchor="middle">Value creation</text>
    </g>
  </g>
  <g transform="matrix(1,0,0,1,320,300)">
    <g opacity="1">
      <rect x="0" y="0" width="300" height="60" style="fill:rgb(0,0,0);fill-opacity:0;stroke-width:1;stroke-opacity:0;stroke:rgb(0,0,0);" rx="0" ry="0" />
      <rect style="fill:rgb(0,0,0);fill-opacity:0;stroke-width:0;stroke-opacity:0;stroke:rgb(0,0,0);" x="31.8233" y="9.555" width="236.3533" height="40.89" />
      <text y="43.6115" font-family="Verdana" font-size="32" font-weight="bold" fill="rgb(0,0,0)" x="150" text-anchor="middle">Retrospectives</text>
    </g>
  </g>
  <g transform="matrix(1,0,0,1,20,0)">
    <g opacity="1">
      <rect x="0" y="0" width="120" height="60" style="fill:rgb(0,0,0);fill-opacity:0;stroke-width:1;stroke-opacity:0;stroke:rgb(0,0,0);" rx="0" ry="0" />
      <rect style="fill:rgb(0,0,0);fill-opacity:0;stroke-width:0;stroke-opacity:0;stroke:rgb(0,0,0);" x="32.77" y="16.0367" width="54.46" height="27.9267" />
      <text y="39.0743" font-family="Verdana" font-size="21.3333" fill="rgb(0,0,0)" x="60" text-anchor="middle">Time</text>
    </g>
  </g>
  <g opacity="1">
    <line x1="120" y1="30" x2="260" y2="30" style="fill:none;stroke-width:1;stroke:rgb(0,0,0);" />
  </g>
  <g opacity="1">
    <line x1="242.5" y1="20" x2="260" y2="30" style="fill:none;stroke-width:1;stroke:rgb(0,0,0);" />
  </g>
  <g opacity="1">
    <line x1="242.5" y1="40" x2="260" y2="30" style="fill:none;stroke-width:1;stroke:rgb(0,0,0);" />
  </g>
</svg>